<mxfile host="65bd71144e">
    <diagram id="bHvaPex2XGFRdQJv9MFC" name="Страница 1">
        <mxGraphModel dx="765" dy="285" grid="1" gridSize="10" guides="1" tooltips="1" connect="1" arrows="1" fold="1" page="1" pageScale="1" pageWidth="827" pageHeight="1169" math="0" shadow="0">
            <root>
                <mxCell id="0"/>
                <mxCell id="1" parent="0"/>
                <mxCell id="2" value="" style="edgeStyle=orthogonalEdgeStyle;rounded=0;orthogonalLoop=1;jettySize=auto;html=1;" edge="1" parent="1" source="3" target="5">
                    <mxGeometry relative="1" as="geometry"/>
                </mxCell>
                <mxCell id="3" value="start" style="ellipse;whiteSpace=wrap;html=1;" vertex="1" parent="1">
                    <mxGeometry x="190" y="65" width="120" height="80" as="geometry"/>
                </mxCell>
                <mxCell id="4" value="" style="edgeStyle=orthogonalEdgeStyle;rounded=0;orthogonalLoop=1;jettySize=auto;html=1;" edge="1" parent="1" source="5" target="8">
                    <mxGeometry relative="1" as="geometry"/>
                </mxCell>
                <mxCell id="24" style="edgeStyle=none;html=1;" edge="1" parent="1" source="5">
                    <mxGeometry relative="1" as="geometry">
                        <mxPoint x="250" y="280" as="targetPoint"/>
                    </mxGeometry>
                </mxCell>
                <mxCell id="5" value="stringArray[ ]={.....&lt;span&gt;}&lt;/span&gt;&lt;br&gt;count=0&lt;br&gt;index=0" style="rounded=0;whiteSpace=wrap;html=1;" vertex="1" parent="1">
                    <mxGeometry x="99.5" y="191" width="301" height="77" as="geometry"/>
                </mxCell>
                <mxCell id="6" value="" style="edgeStyle=orthogonalEdgeStyle;rounded=0;orthogonalLoop=1;jettySize=auto;html=1;startArrow=none;" edge="1" parent="1" source="21" target="13">
                    <mxGeometry relative="1" as="geometry"/>
                </mxCell>
                <mxCell id="28" value="" style="edgeStyle=none;html=1;exitX=1;exitY=0.5;exitDx=0;exitDy=0;entryX=1;entryY=0.5;entryDx=0;entryDy=0;" edge="1" parent="1" source="8" target="10">
                    <mxGeometry relative="1" as="geometry">
                        <mxPoint x="500" y="981.5999755859375" as="targetPoint"/>
                        <Array as="points">
                            <mxPoint x="444" y="359"/>
                            <mxPoint x="444" y="825"/>
                        </Array>
                    </mxGeometry>
                </mxCell>
                <mxCell id="8" value="index&amp;lt;=stringArray.Lenght" style="rhombus;whiteSpace=wrap;html=1;" vertex="1" parent="1">
                    <mxGeometry x="167.5" y="307" width="162.5" height="103" as="geometry"/>
                </mxCell>
                <mxCell id="9" value="" style="edgeStyle=orthogonalEdgeStyle;rounded=0;orthogonalLoop=1;jettySize=auto;html=1;" edge="1" parent="1" source="10">
                    <mxGeometry relative="1" as="geometry">
                        <mxPoint x="255" y="918" as="targetPoint"/>
                    </mxGeometry>
                </mxCell>
                <mxCell id="10" value="count" style="shape=document;whiteSpace=wrap;html=1;boundedLbl=1;" vertex="1" parent="1">
                    <mxGeometry x="195" y="785" width="120" height="80" as="geometry"/>
                </mxCell>
                <mxCell id="11" value="end" style="ellipse;whiteSpace=wrap;html=1;" vertex="1" parent="1">
                    <mxGeometry x="190" y="900" width="120" height="80" as="geometry"/>
                </mxCell>
                <mxCell id="25" style="edgeStyle=none;html=1;exitX=0;exitY=0.5;exitDx=0;exitDy=0;" edge="1" parent="1" source="13">
                    <mxGeometry relative="1" as="geometry">
                        <mxPoint x="250" y="300" as="targetPoint"/>
                        <Array as="points">
                            <mxPoint x="50" y="720"/>
                            <mxPoint x="50" y="300"/>
                        </Array>
                    </mxGeometry>
                </mxCell>
                <mxCell id="13" value="index++" style="rounded=0;whiteSpace=wrap;html=1;fillColor=default;gradientColor=none;" vertex="1" parent="1">
                    <mxGeometry x="188" y="690" width="124" height="60" as="geometry"/>
                </mxCell>
                <mxCell id="15" value="true" style="text;html=1;strokeColor=none;fillColor=none;align=center;verticalAlign=middle;whiteSpace=wrap;rounded=0;" vertex="1" parent="1">
                    <mxGeometry x="190" y="410" width="60" height="30" as="geometry"/>
                </mxCell>
                <mxCell id="16" value="false" style="text;html=1;strokeColor=none;fillColor=none;align=center;verticalAlign=middle;whiteSpace=wrap;rounded=0;" vertex="1" parent="1">
                    <mxGeometry x="430" y="384" width="60" height="30" as="geometry"/>
                </mxCell>
                <mxCell id="29" style="edgeStyle=none;html=1;entryX=1;entryY=0.5;entryDx=0;entryDy=0;" edge="1" parent="1" target="13">
                    <mxGeometry relative="1" as="geometry">
                        <mxPoint x="380" y="721.6000366210938" as="targetPoint"/>
                        <mxPoint x="340" y="470" as="sourcePoint"/>
                        <Array as="points">
                            <mxPoint x="400" y="470"/>
                            <mxPoint x="400" y="720"/>
                        </Array>
                    </mxGeometry>
                </mxCell>
                <mxCell id="19" value="stringArray[index].Length&amp;lt;=3" style="rhombus;whiteSpace=wrap;html=1;" vertex="1" parent="1">
                    <mxGeometry x="162.5" y="430" width="175" height="80" as="geometry"/>
                </mxCell>
                <mxCell id="20" value="" style="edgeStyle=orthogonalEdgeStyle;rounded=0;orthogonalLoop=1;jettySize=auto;html=1;endArrow=none;" edge="1" parent="1" source="8" target="19">
                    <mxGeometry relative="1" as="geometry">
                        <mxPoint x="254" y="362" as="sourcePoint"/>
                        <mxPoint x="254" y="715" as="targetPoint"/>
                    </mxGeometry>
                </mxCell>
                <mxCell id="22" value="true" style="text;html=1;strokeColor=none;fillColor=none;align=center;verticalAlign=middle;whiteSpace=wrap;rounded=0;" vertex="1" parent="1">
                    <mxGeometry x="195" y="510" width="59" height="35" as="geometry"/>
                </mxCell>
                <mxCell id="23" value="false" style="text;html=1;strokeColor=none;fillColor=none;align=center;verticalAlign=middle;whiteSpace=wrap;rounded=0;" vertex="1" parent="1">
                    <mxGeometry x="354" y="510" width="60" height="30" as="geometry"/>
                </mxCell>
                <mxCell id="21" value="count+=stringArray[index]" style="rounded=0;whiteSpace=wrap;html=1;" vertex="1" parent="1">
                    <mxGeometry x="175" y="562" width="150" height="60" as="geometry"/>
                </mxCell>
                <mxCell id="26" value="" style="edgeStyle=orthogonalEdgeStyle;rounded=0;orthogonalLoop=1;jettySize=auto;html=1;startArrow=none;endArrow=none;exitX=0.5;exitY=1;exitDx=0;exitDy=0;" edge="1" parent="1" source="19" target="21">
                    <mxGeometry relative="1" as="geometry">
                        <mxPoint x="255" y="510" as="sourcePoint"/>
                        <mxPoint x="257" y="685" as="targetPoint"/>
                    </mxGeometry>
                </mxCell>
            </root>
        </mxGraphModel>
    </diagram>
</mxfile>